<mxfile host="Electron" modified="2024-06-04T00:12:27.615Z" agent="Mozilla/5.0 (Windows NT 10.0; Win64; x64) AppleWebKit/537.36 (KHTML, like Gecko) draw.io/24.4.13 Chrome/124.0.6367.207 Electron/30.0.6 Safari/537.36" etag="cyYcq_mjEH0ERmlq6Jw_" version="24.4.13" type="device" pages="2">
  <diagram id="kgpKYQtTHZ0yAKxKKP6v" name="Page-1">
    <mxGraphModel dx="1500" dy="887" grid="1" gridSize="10" guides="1" tooltips="1" connect="1" arrows="1" fold="1" page="1" pageScale="1" pageWidth="850" pageHeight="1100" math="0" shadow="0">
      <root>
        <mxCell id="0" />
        <mxCell id="1" parent="0" />
        <mxCell id="TR3HpXv-k49Oe98Kgcgv-10" value=":IU cours" style="shape=umlLifeline;participant=umlBoundary;perimeter=lifelinePerimeter;whiteSpace=wrap;html=1;container=1;collapsible=0;recursiveResize=0;verticalAlign=top;spacingTop=36;outlineConnect=0;" parent="1" vertex="1">
          <mxGeometry x="430" y="15" width="50" height="875" as="geometry" />
        </mxCell>
        <mxCell id="uwunShh2eXxCLl3LTYza-4" value="" style="html=1;points=[[0,0,0,0,5],[0,1,0,0,-5],[1,0,0,0,5],[1,1,0,0,-5]];perimeter=orthogonalPerimeter;outlineConnect=0;targetShapes=umlLifeline;portConstraint=eastwest;newEdgeStyle={&quot;curved&quot;:0,&quot;rounded&quot;:0};" parent="TR3HpXv-k49Oe98Kgcgv-10" vertex="1">
          <mxGeometry x="20" y="226" width="10" height="210" as="geometry" />
        </mxCell>
        <mxCell id="uwunShh2eXxCLl3LTYza-19" value="6):Message d&#39;erreur affiché" style="html=1;verticalAlign=bottom;endArrow=open;dashed=1;endSize=8;curved=0;rounded=0;fontSize=12;" parent="TR3HpXv-k49Oe98Kgcgv-10" edge="1">
          <mxGeometry relative="1" as="geometry">
            <mxPoint x="30" y="436" as="sourcePoint" />
            <mxPoint x="-180.5" y="436" as="targetPoint" />
          </mxGeometry>
        </mxCell>
        <mxCell id="TR3HpXv-k49Oe98Kgcgv-70" value="" style="html=1;points=[];perimeter=orthogonalPerimeter;fontSize=115;" parent="TR3HpXv-k49Oe98Kgcgv-10" vertex="1">
          <mxGeometry x="20" y="805" width="10" height="45" as="geometry" />
        </mxCell>
        <mxCell id="h5Wv6Gw_NpzDMm18Z7D9-5" value="" style="html=1;points=[];perimeter=orthogonalPerimeter;" parent="TR3HpXv-k49Oe98Kgcgv-10" vertex="1">
          <mxGeometry x="20" y="115" width="10" height="80" as="geometry" />
        </mxCell>
        <mxCell id="TR3HpXv-k49Oe98Kgcgv-12" value="enseignant" style="shape=umlLifeline;participant=umlActor;perimeter=lifelinePerimeter;whiteSpace=wrap;html=1;container=1;collapsible=0;recursiveResize=0;verticalAlign=top;spacingTop=36;outlineConnect=0;" parent="1" vertex="1">
          <mxGeometry x="240" y="20" width="20" height="870" as="geometry" />
        </mxCell>
        <mxCell id="TR3HpXv-k49Oe98Kgcgv-25" value="" style="html=1;points=[];perimeter=orthogonalPerimeter;" parent="TR3HpXv-k49Oe98Kgcgv-12" vertex="1">
          <mxGeometry x="5" y="216" width="10" height="40" as="geometry" />
        </mxCell>
        <mxCell id="TR3HpXv-k49Oe98Kgcgv-13" value="controller" style="shape=umlLifeline;participant=umlControl;perimeter=lifelinePerimeter;whiteSpace=wrap;html=1;container=1;collapsible=0;recursiveResize=0;verticalAlign=top;spacingTop=36;outlineConnect=0;" parent="1" vertex="1">
          <mxGeometry x="640" y="20" width="40" height="870" as="geometry" />
        </mxCell>
        <mxCell id="uwunShh2eXxCLl3LTYza-26" value="" style="html=1;points=[[0,0,0,0,5],[0,1,0,0,-5],[1,0,0,0,5],[1,1,0,0,-5]];perimeter=orthogonalPerimeter;outlineConnect=0;targetShapes=umlLifeline;portConstraint=eastwest;newEdgeStyle={&quot;curved&quot;:0,&quot;rounded&quot;:0};" parent="TR3HpXv-k49Oe98Kgcgv-13" vertex="1">
          <mxGeometry x="15" y="570" width="10" height="50" as="geometry" />
        </mxCell>
        <mxCell id="TR3HpXv-k49Oe98Kgcgv-68" value="" style="html=1;points=[];perimeter=orthogonalPerimeter;fontSize=115;" parent="TR3HpXv-k49Oe98Kgcgv-13" vertex="1">
          <mxGeometry x="15" y="750" width="10" height="50" as="geometry" />
        </mxCell>
        <mxCell id="TR3HpXv-k49Oe98Kgcgv-14" value="cours" style="shape=umlLifeline;participant=umlEntity;perimeter=lifelinePerimeter;whiteSpace=wrap;html=1;container=1;collapsible=0;recursiveResize=0;verticalAlign=top;spacingTop=36;outlineConnect=0;" parent="1" vertex="1">
          <mxGeometry x="830" y="7.5" width="40" height="882.5" as="geometry" />
        </mxCell>
        <mxCell id="uwunShh2eXxCLl3LTYza-14" value="" style="html=1;points=[[0,0,0,0,5],[0,1,0,0,-5],[1,0,0,0,5],[1,1,0,0,-5]];perimeter=orthogonalPerimeter;outlineConnect=0;targetShapes=umlLifeline;portConstraint=eastwest;newEdgeStyle={&quot;curved&quot;:0,&quot;rounded&quot;:0};" parent="TR3HpXv-k49Oe98Kgcgv-14" vertex="1">
          <mxGeometry x="15" y="346" width="10" height="30" as="geometry" />
        </mxCell>
        <mxCell id="uwunShh2eXxCLl3LTYza-21" value="" style="html=1;points=[[0,0,0,0,5],[0,1,0,0,-5],[1,0,0,0,5],[1,1,0,0,-5]];perimeter=orthogonalPerimeter;outlineConnect=0;targetShapes=umlLifeline;portConstraint=eastwest;newEdgeStyle={&quot;curved&quot;:0,&quot;rounded&quot;:0};" parent="TR3HpXv-k49Oe98Kgcgv-14" vertex="1">
          <mxGeometry x="15" y="486" width="10" height="40" as="geometry" />
        </mxCell>
        <mxCell id="uwunShh2eXxCLl3LTYza-22" value="8):vérification des données" style="html=1;align=left;spacingLeft=2;endArrow=block;rounded=0;edgeStyle=orthogonalEdgeStyle;curved=0;rounded=0;fontSize=12;startSize=8;endSize=8;" parent="TR3HpXv-k49Oe98Kgcgv-14" target="uwunShh2eXxCLl3LTYza-21" edge="1">
          <mxGeometry relative="1" as="geometry">
            <mxPoint x="20" y="466" as="sourcePoint" />
            <Array as="points">
              <mxPoint x="50" y="496" />
            </Array>
          </mxGeometry>
        </mxCell>
        <mxCell id="TR3HpXv-k49Oe98Kgcgv-66" value="" style="html=1;points=[];perimeter=orthogonalPerimeter;fontSize=115;" parent="TR3HpXv-k49Oe98Kgcgv-14" vertex="1">
          <mxGeometry x="15" y="722.5" width="10" height="50" as="geometry" />
        </mxCell>
        <mxCell id="TR3HpXv-k49Oe98Kgcgv-15" value="Ref" style="shape=umlFrame;whiteSpace=wrap;html=1;" parent="1" vertex="1">
          <mxGeometry x="200" y="84" width="760" height="50" as="geometry" />
        </mxCell>
        <mxCell id="TR3HpXv-k49Oe98Kgcgv-16" value="&amp;nbsp;Sequence Diagramme : Gérer cours/ Diagramme seq Consulter cours" style="text;html=1;strokeColor=none;fillColor=none;align=center;verticalAlign=middle;whiteSpace=wrap;rounded=0;" parent="1" vertex="1">
          <mxGeometry x="340" y="69" width="460" height="80" as="geometry" />
        </mxCell>
        <mxCell id="TR3HpXv-k49Oe98Kgcgv-39" value="" style="html=1;verticalLabelPosition=bottom;verticalAlign=top;outlineConnect=0;shadow=0;dashed=0;shape=mxgraph.rack.hpe_aruba.switches.rj45_sfp_alt;" parent="1" vertex="1">
          <mxGeometry x="440" y="650" width="5" height="4" as="geometry" />
        </mxCell>
        <mxCell id="TR3HpXv-k49Oe98Kgcgv-42" value="[succés]" style="text;html=1;strokeColor=none;fillColor=none;align=center;verticalAlign=middle;whiteSpace=wrap;rounded=0;" parent="1" vertex="1">
          <mxGeometry x="190" y="580" width="60" height="30" as="geometry" />
        </mxCell>
        <mxCell id="TR3HpXv-k49Oe98Kgcgv-43" value="Données a modifier saisie" style="html=1;verticalAlign=bottom;endArrow=block;rounded=0;" parent="1" edge="1">
          <mxGeometry x="-0.1028" y="10" width="80" relative="1" as="geometry">
            <mxPoint x="260" y="246" as="sourcePoint" />
            <mxPoint x="450" y="246" as="targetPoint" />
            <mxPoint x="1" as="offset" />
          </mxGeometry>
        </mxCell>
        <mxCell id="TR3HpXv-k49Oe98Kgcgv-46" value="12):Message de succés affiché" style="html=1;verticalAlign=bottom;endArrow=open;dashed=1;endSize=8;exitX=-0.2;exitY=0.488;rounded=0;exitDx=0;exitDy=0;exitPerimeter=0;" parent="1" edge="1">
          <mxGeometry x="-0.0067" y="-10" relative="1" as="geometry">
            <mxPoint x="246.3888888888889" y="680" as="targetPoint" />
            <mxPoint x="445" y="680.28" as="sourcePoint" />
            <Array as="points">
              <mxPoint x="337" y="680" />
            </Array>
            <mxPoint as="offset" />
          </mxGeometry>
        </mxCell>
        <mxCell id="TR3HpXv-k49Oe98Kgcgv-67" value="9)résultat vérification des données" style="html=1;verticalAlign=bottom;endArrow=open;dashed=1;endSize=8;exitX=-0.2;exitY=0.488;rounded=0;exitDx=0;exitDy=0;exitPerimeter=0;" parent="1" edge="1">
          <mxGeometry x="-0.0067" y="-10" relative="1" as="geometry">
            <mxPoint x="665" y="770" as="targetPoint" />
            <mxPoint x="850" y="770.28" as="sourcePoint" />
            <Array as="points">
              <mxPoint x="742" y="770" />
            </Array>
            <mxPoint as="offset" />
          </mxGeometry>
        </mxCell>
        <mxCell id="TR3HpXv-k49Oe98Kgcgv-71" value="10)Modification échouée" style="html=1;verticalAlign=bottom;endArrow=open;dashed=1;endSize=8;rounded=0;" parent="1" edge="1">
          <mxGeometry x="-0.0067" y="-10" relative="1" as="geometry">
            <mxPoint x="450" y="820" as="targetPoint" />
            <mxPoint x="655" y="820" as="sourcePoint" />
            <Array as="points">
              <mxPoint x="527" y="820" />
            </Array>
            <mxPoint as="offset" />
          </mxGeometry>
        </mxCell>
        <mxCell id="uwunShh2eXxCLl3LTYza-7" value="vérification des champs" style="html=1;align=left;spacingLeft=2;endArrow=block;rounded=0;edgeStyle=orthogonalEdgeStyle;curved=0;rounded=0;fontSize=12;startSize=8;endSize=8;" parent="1" edge="1">
          <mxGeometry x="0.0588" y="10" relative="1" as="geometry">
            <mxPoint x="460" y="251" as="sourcePoint" />
            <Array as="points">
              <mxPoint x="490" y="281" />
            </Array>
            <mxPoint x="465" y="281" as="targetPoint" />
            <mxPoint as="offset" />
          </mxGeometry>
        </mxCell>
        <mxCell id="uwunShh2eXxCLl3LTYza-8" value="6)soumettre les données" style="html=1;verticalAlign=bottom;endArrow=block;rounded=0;" parent="1" edge="1">
          <mxGeometry x="-0.1028" y="10" width="80" relative="1" as="geometry">
            <mxPoint x="460" y="326" as="sourcePoint" />
            <mxPoint x="659.5" y="326" as="targetPoint" />
            <mxPoint x="1" as="offset" />
          </mxGeometry>
        </mxCell>
        <mxCell id="uwunShh2eXxCLl3LTYza-9" value="Par" style="shape=umlFrame;whiteSpace=wrap;html=1;pointerEvents=0;" parent="1" vertex="1">
          <mxGeometry x="330" y="346" width="630" height="70" as="geometry" />
        </mxCell>
        <mxCell id="uwunShh2eXxCLl3LTYza-10" value="" style="html=1;points=[[0,0,0,0,5],[0,1,0,0,-5],[1,0,0,0,5],[1,1,0,0,-5]];perimeter=orthogonalPerimeter;outlineConnect=0;targetShapes=umlLifeline;portConstraint=eastwest;newEdgeStyle={&quot;curved&quot;:0,&quot;rounded&quot;:0};" parent="1" vertex="1">
          <mxGeometry x="655" y="326" width="10" height="70" as="geometry" />
        </mxCell>
        <mxCell id="uwunShh2eXxCLl3LTYza-11" value="7)Envoyer requete modifier cours(données)" style="html=1;verticalAlign=bottom;endArrow=block;rounded=0;" parent="1" target="uwunShh2eXxCLl3LTYza-14" edge="1">
          <mxGeometry x="0.3889" y="10" width="80" relative="1" as="geometry">
            <mxPoint x="665" y="376" as="sourcePoint" />
            <mxPoint x="810" y="386" as="targetPoint" />
            <mxPoint as="offset" />
          </mxGeometry>
        </mxCell>
        <mxCell id="uwunShh2eXxCLl3LTYza-20" value="Loop" style="shape=umlFrame;whiteSpace=wrap;html=1;pointerEvents=0;" parent="1" vertex="1">
          <mxGeometry x="210" y="200" width="780" height="260" as="geometry" />
        </mxCell>
        <mxCell id="uwunShh2eXxCLl3LTYza-23" value="" style="html=1;points=[[0,0,0,0,5],[0,1,0,0,-5],[1,0,0,0,5],[1,1,0,0,-5]];perimeter=orthogonalPerimeter;outlineConnect=0;targetShapes=umlLifeline;portConstraint=eastwest;newEdgeStyle={&quot;curved&quot;:0,&quot;rounded&quot;:0};" parent="1" vertex="1">
          <mxGeometry x="850" y="560" width="10" height="40" as="geometry" />
        </mxCell>
        <mxCell id="uwunShh2eXxCLl3LTYza-24" value="9):Exécution requete Modifier cours(données)" style="html=1;align=left;spacingLeft=2;endArrow=block;rounded=0;edgeStyle=orthogonalEdgeStyle;curved=0;rounded=0;fontSize=12;startSize=8;endSize=8;" parent="1" target="uwunShh2eXxCLl3LTYza-23" edge="1">
          <mxGeometry relative="1" as="geometry">
            <mxPoint x="855" y="540" as="sourcePoint" />
            <Array as="points">
              <mxPoint x="885" y="570" />
            </Array>
          </mxGeometry>
        </mxCell>
        <mxCell id="uwunShh2eXxCLl3LTYza-25" value="10):réponse requete" style="html=1;verticalAlign=bottom;endArrow=open;dashed=1;endSize=8;curved=0;rounded=0;fontSize=12;" parent="1" target="TR3HpXv-k49Oe98Kgcgv-13" edge="1">
          <mxGeometry relative="1" as="geometry">
            <mxPoint x="850" y="590" as="sourcePoint" />
            <mxPoint x="770" y="590" as="targetPoint" />
          </mxGeometry>
        </mxCell>
        <mxCell id="uwunShh2eXxCLl3LTYza-27" value="11):Modification réussie" style="html=1;verticalAlign=bottom;endArrow=open;dashed=1;endSize=8;curved=0;rounded=0;fontSize=12;" parent="1" target="TR3HpXv-k49Oe98Kgcgv-10" edge="1">
          <mxGeometry x="-0.0544" y="-10" relative="1" as="geometry">
            <mxPoint x="655" y="630" as="sourcePoint" />
            <mxPoint x="575" y="630" as="targetPoint" />
            <mxPoint x="-1" as="offset" />
          </mxGeometry>
        </mxCell>
        <mxCell id="uwunShh2eXxCLl3LTYza-28" value="" style="html=1;points=[[0,0,0,0,5],[0,1,0,0,-5],[1,0,0,0,5],[1,1,0,0,-5]];perimeter=orthogonalPerimeter;outlineConnect=0;targetShapes=umlLifeline;portConstraint=eastwest;newEdgeStyle={&quot;curved&quot;:0,&quot;rounded&quot;:0};" parent="1" vertex="1">
          <mxGeometry x="445" y="630" width="10" height="60" as="geometry" />
        </mxCell>
        <mxCell id="uwunShh2eXxCLl3LTYza-30" value="" style="html=1;points=[[0,0,0,0,5],[0,1,0,0,-5],[1,0,0,0,5],[1,1,0,0,-5]];perimeter=orthogonalPerimeter;outlineConnect=0;targetShapes=umlLifeline;portConstraint=eastwest;newEdgeStyle={&quot;curved&quot;:0,&quot;rounded&quot;:0};" parent="1" vertex="1">
          <mxGeometry x="245" y="680" width="10" height="40" as="geometry" />
        </mxCell>
        <mxCell id="uwunShh2eXxCLl3LTYza-32" value="[Echec]" style="text;html=1;strokeColor=none;fillColor=none;align=center;verticalAlign=middle;whiteSpace=wrap;rounded=0;" parent="1" vertex="1">
          <mxGeometry x="190" y="730" width="60" height="30" as="geometry" />
        </mxCell>
        <mxCell id="uwunShh2eXxCLl3LTYza-33" value="11)Message d&#39;erreur affiché" style="html=1;verticalAlign=bottom;endArrow=open;dashed=1;endSize=8;rounded=0;" parent="1" edge="1">
          <mxGeometry x="-0.0067" y="-10" relative="1" as="geometry">
            <mxPoint x="245" y="860" as="targetPoint" />
            <mxPoint x="450" y="860" as="sourcePoint" />
            <Array as="points">
              <mxPoint x="322" y="860" />
            </Array>
            <mxPoint as="offset" />
          </mxGeometry>
        </mxCell>
        <mxCell id="uwunShh2eXxCLl3LTYza-35" value="Alt" style="shape=umlFrame;whiteSpace=wrap;html=1;pointerEvents=0;" parent="1" vertex="1">
          <mxGeometry x="189" y="526" width="960" height="370" as="geometry" />
        </mxCell>
        <mxCell id="h5Wv6Gw_NpzDMm18Z7D9-6" value="clik button modifier" style="html=1;verticalAlign=bottom;endArrow=block;entryX=0;entryY=0;rounded=0;" parent="1" source="TR3HpXv-k49Oe98Kgcgv-12" edge="1">
          <mxGeometry relative="1" as="geometry">
            <mxPoint x="280" y="151" as="sourcePoint" />
            <mxPoint x="460" y="151.0000000000001" as="targetPoint" />
          </mxGeometry>
        </mxCell>
        <mxCell id="h5Wv6Gw_NpzDMm18Z7D9-7" value="interface modification fournie" style="html=1;verticalAlign=bottom;endArrow=open;dashed=1;endSize=8;exitX=0;exitY=0.95;rounded=0;" parent="1" edge="1">
          <mxGeometry relative="1" as="geometry">
            <mxPoint x="249.5" y="190" as="targetPoint" />
            <mxPoint x="460" y="190" as="sourcePoint" />
          </mxGeometry>
        </mxCell>
        <mxCell id="h5Wv6Gw_NpzDMm18Z7D9-8" value="clik button modifier&amp;nbsp;" style="html=1;verticalAlign=bottom;endArrow=block;rounded=0;" parent="1" edge="1">
          <mxGeometry x="0.2105" y="10" width="80" relative="1" as="geometry">
            <mxPoint x="255" y="280" as="sourcePoint" />
            <mxPoint x="445" y="280" as="targetPoint" />
            <mxPoint as="offset" />
          </mxGeometry>
        </mxCell>
        <mxCell id="uwunShh2eXxCLl3LTYza-31" value="" style="endArrow=none;dashed=1;html=1;rounded=0;fontSize=12;startSize=8;endSize=8;curved=1;entryX=1.006;entryY=0.546;entryDx=0;entryDy=0;entryPerimeter=0;exitX=0.003;exitY=0.549;exitDx=0;exitDy=0;exitPerimeter=0;" parent="1" source="uwunShh2eXxCLl3LTYza-35" target="uwunShh2eXxCLl3LTYza-35" edge="1">
          <mxGeometry width="50" height="50" relative="1" as="geometry">
            <mxPoint x="234" y="730" as="sourcePoint" />
            <mxPoint x="1104" y="721.4705882352941" as="targetPoint" />
          </mxGeometry>
        </mxCell>
      </root>
    </mxGraphModel>
  </diagram>
  <diagram id="91-CTFUeDaUW-0zkBQth" name="Page-2">
    <mxGraphModel dx="1050" dy="621" grid="1" gridSize="10" guides="1" tooltips="1" connect="1" arrows="1" fold="1" page="1" pageScale="1" pageWidth="850" pageHeight="1400" math="0" shadow="0">
      <root>
        <mxCell id="0" />
        <mxCell id="1" parent="0" />
        <mxCell id="-4NVfZdhFxt_nvHMNReC-1" value="&lt;p style=&quot;margin:0px;margin-top:4px;text-align:center;&quot;&gt;&lt;b&gt;Class&lt;/b&gt;&lt;/p&gt;&lt;hr size=&quot;1&quot; style=&quot;border-style:solid;&quot;/&gt;&lt;p style=&quot;margin:0px;margin-left:4px;&quot;&gt;+ field: Type&lt;/p&gt;&lt;hr size=&quot;1&quot; style=&quot;border-style:solid;&quot;/&gt;&lt;p style=&quot;margin:0px;margin-left:4px;&quot;&gt;+ method(): Type&lt;/p&gt;" style="verticalAlign=top;align=left;overflow=fill;html=1;whiteSpace=wrap;" vertex="1" parent="1">
          <mxGeometry x="340" y="280" width="160" height="90" as="geometry" />
        </mxCell>
      </root>
    </mxGraphModel>
  </diagram>
</mxfile>
